<svg width="24" height="24" viewBox="0 0 24 24" fill="none" xmlns="http://www.w3.org/2000/svg">
<path d="M16.2929 12.2928C16.6534 11.9323 17.2209 11.9048 17.6132 12.2098L17.707 12.2928C18.0674 12.6533 18.095 13.2208 17.79 13.6131L17.707 13.7069L12.707 18.7069C12.3465 19.0673 11.7789 19.0949 11.3866 18.7899L11.2929 18.7069L6.29289 13.7069C5.90237 13.3163 5.90237 12.6833 6.29289 12.2928C6.65338 11.9323 7.22091 11.9048 7.61321 12.2098L7.70696 12.2928L11.9999 16.5848L16.2929 12.2928ZM16.2929 6.29279C16.6534 5.93231 17.2209 5.90476 17.6132 6.20978L17.707 6.29279C18.0674 6.65328 18.095 7.22081 17.79 7.6131L17.707 7.70685L12.707 12.7069C12.3465 13.0673 11.7789 13.0949 11.3866 12.7899L11.2929 12.7069L6.29289 7.70685C5.90237 7.31633 5.90237 6.68332 6.29289 6.29279C6.65338 5.93231 7.22091 5.90476 7.61321 6.20978L7.70696 6.29279L11.9999 10.5848L16.2929 6.29279Z" fill="black"/>
</svg>
