<svg width="20" height="20" viewBox="0 0 20 20" fill="none" xmlns="http://www.w3.org/2000/svg">
<g opacity="0.7">
<path d="M9.21533 1.66748L9.26416 1.67236L9.31396 1.6792L9.35791 1.68896L9.44775 1.71533L9.50342 1.73682L9.61279 1.79639L9.68799 1.84912L9.75537 1.91064L17.2876 9.44385C17.9613 10.197 17.993 11.318 17.356 12.1353L17.2554 12.2554L12.2222 17.2876C11.469 17.9613 10.3481 17.993 9.53076 17.356L9.41064 17.2554L1.91064 9.75537C1.7805 9.62516 1.69727 9.45639 1.67334 9.27588L1.6665 9.1665V5.8335C1.6665 3.53231 3.53231 1.6665 5.8335 1.6665L9.21533 1.66748ZM5.8335 3.3335C4.50218 3.3335 3.41356 4.37381 3.3374 5.68604L3.3335 5.8335V8.8208L10.5552 16.0454C10.6936 16.1692 10.8945 16.1843 11.0259 16.1128L11.0776 16.0776L16.0454 11.1108C16.1691 10.9725 16.1842 10.7724 16.1128 10.6411L16.0776 10.5894L8.8208 3.3335H5.8335ZM7.49951 4.99951C8.88012 4.99951 9.99934 6.11895 9.99951 7.49951C9.99951 8.88022 8.88022 9.99951 7.49951 9.99951C6.11895 9.99934 4.99951 8.88012 4.99951 7.49951C4.99969 6.11906 6.11906 4.99969 7.49951 4.99951ZM7.49951 6.6665C7.03953 6.66668 6.66668 7.03953 6.6665 7.49951C6.6665 7.95964 7.03942 8.33234 7.49951 8.33252C7.95975 8.33252 8.33252 7.95975 8.33252 7.49951C8.33234 7.03942 7.95964 6.6665 7.49951 6.6665Z" fill="#6A6A6A"/>
</g>
</svg>
