<svg width="24" height="24" viewBox="0 0 24 24" fill="none" xmlns="http://www.w3.org/2000/svg">
<path d="M14 2C15.0543 2 15.9177 2.81581 15.9941 3.85059L16 4V6H20C20.5523 6 21 6.44772 21 7C21 7.51284 20.6135 7.9354 20.1162 7.99316L20 8H19.9199L19 19C19 20.5975 17.7513 21.9036 16.1768 21.9951L16 22H8C6.4024 22 5.09608 20.7512 5.00781 19.251L5.00391 19.083L4.08008 8H4C3.44772 8 3 7.55228 3 7C3 6.48716 3.38645 6.0646 3.88379 6.00684L4 6H8V4C8 2.9457 8.81581 2.08229 9.85059 2.00586L10 2H14ZM7 19C7 19.5128 7.38645 19.9354 7.88379 19.9932L8 20H16C16.5155 20 16.94 19.6096 16.9971 19.041L17.0039 18.917L17.9141 8H6.08594L7 19ZM10 10C10.5128 10 10.9354 10.3865 10.9932 10.8838L11 11V17C11 17.5523 10.5523 18 10 18C9.48716 18 9.0646 17.6135 9.00684 17.1162L9 17V11C9 10.4477 9.44772 10 10 10ZM14 10C14.5128 10 14.9354 10.3865 14.9932 10.8838L15 11V17C15 17.5523 14.5523 18 14 18C13.4872 18 13.0646 17.6135 13.0068 17.1162L13 17V11C13 10.4477 13.4477 10 14 10ZM10 6H14V4H10V6Z" fill="black"/>
</svg>
