<svg width="24" height="24" viewBox="0 0 24 24" fill="none" xmlns="http://www.w3.org/2000/svg">
<path fill-rule="evenodd" clip-rule="evenodd" d="M13.8559 3.48277C13.6765 3.18583 13.3532 3 13 3H11L10.8764 3.00763C10.5108 3.05303 10.1954 3.2976 10.0637 3.64888L4.307 19H4L3.88338 19.0067C3.38604 19.0645 3 19.4872 3 20C3 20.5523 3.44772 21 4 21H4.97667C4.99216 21.0004 5.00762 21.0004 5.02304 21H7L7.11662 20.9933C7.61396 20.9355 8 20.5128 8 20C8 19.4477 7.55228 19 7 19H6.443L7.568 16H13.2206L14.4907 19H14L13.8834 19.0067C13.386 19.0645 13 19.4872 13 20C13 20.5523 13.4477 21 14 21H15.9778C15.9929 21.0003 16.008 21.0003 16.0231 21H19.9781C19.993 21.0003 20.008 21.0003 20.0229 21H21L21.1166 20.9933C21.614 20.9355 22 20.5128 22 20C22 19.4477 21.5523 19 21 19H20.654L13.9162 3.59918L13.8559 3.48277ZM18.4709 19L12.345 5H11.693L11.2433 6.19926L16.6626 19H18.4709ZM10.2231 8.91966L8.318 14H12.3739L10.2231 8.91966Z" fill="black"/>
</svg>
