<svg width="24" height="24" viewBox="0 0 24 24" fill="none" xmlns="http://www.w3.org/2000/svg">
<path d="M17.2126 2.13537C17.8127 2.09598 18.4143 2.18078 18.9802 2.38439C19.546 2.58799 20.0643 2.90532 20.5017 3.31798C20.9391 3.73069 21.287 4.22974 21.5232 4.78283C21.7592 5.33579 21.8782 5.93161 21.8738 6.53283C21.8693 7.13421 21.7411 7.72841 21.4968 8.27794C21.2525 8.82745 20.8973 9.32098 20.4538 9.72716C20.4414 9.73852 20.4288 9.74974 20.4158 9.76037C15.1248 14.0692 11.0571 17.2308 8.22142 19.235C6.80835 20.2337 5.67474 20.9633 4.83665 21.4039C4.42361 21.6211 4.03766 21.7926 3.70189 21.8795C3.53462 21.9228 3.33327 21.9572 3.12376 21.943C2.91007 21.9285 2.61989 21.8569 2.38158 21.6188C2.14515 21.3823 2.07188 21.0943 2.05638 20.8805C2.04126 20.6713 2.07539 20.4703 2.1179 20.3033C2.20325 19.9685 2.37223 19.5844 2.58665 19.1744C3.02193 18.3423 3.74349 17.2183 4.73119 15.818C6.71337 13.0078 9.84175 8.97801 14.1062 3.7379C14.4859 3.27156 14.9585 2.88874 15.4929 2.6129C16.0272 2.33717 16.6126 2.17475 17.2126 2.13537ZM17.3269 3.88146C16.9671 3.90512 16.616 4.00231 16.2956 4.16759C16.055 4.29178 15.8351 4.45261 15.6443 4.64318L15.4636 4.84337C11.2052 10.0761 8.10714 14.0675 6.16087 16.8268C5.3011 18.0457 4.68041 19.0038 4.2849 19.7115C5.00077 19.3108 5.97258 18.6803 7.21068 17.8053C9.99124 15.8401 14.0123 12.7162 19.2829 8.42443C19.5435 8.18281 19.7538 7.89183 19.8982 7.56701C20.0447 7.23736 20.1211 6.88087 20.1238 6.52013C20.1264 6.1593 20.0545 5.8012 19.9128 5.46935C19.7712 5.13775 19.5628 4.83889 19.3005 4.59142C19.0381 4.34379 18.727 4.15304 18.3874 4.03087C18.048 3.90878 17.6869 3.85783 17.3269 3.88146Z" fill="black"/>
<path d="M16.8813 5.88128C17.223 5.53957 17.7779 5.53957 18.1196 5.88128C18.4613 6.22299 18.4613 6.77785 18.1196 7.11956L17.1196 8.11956C16.7779 8.46127 16.223 8.46127 15.8813 8.11956C15.5396 7.77785 15.5396 7.22299 15.8813 6.88128L16.8813 5.88128Z" fill="black"/>
<path d="M9.125 5C9.125 4.37 9.28112 3.64586 9.76562 3.06445C10.2735 2.45522 11.0398 2.125 12 2.125C13.0493 2.125 13.9138 2.60637 14.7598 3.33789C15.5878 4.0539 16.509 5.11013 17.6582 6.42383C17.9763 6.78748 17.9397 7.34 17.5762 7.6582C17.2125 7.97631 16.66 7.93969 16.3418 7.57617C15.1582 6.22308 14.3289 5.27931 13.6152 4.66211C12.9195 4.06047 12.4506 3.875 12 3.875C11.4604 3.875 11.2265 4.04502 11.1094 4.18555C10.9691 4.35418 10.875 4.63028 10.875 5C10.875 5.71759 11.2494 6.55522 11.9512 7.53027C12.6442 8.49309 13.5515 9.45354 14.4541 10.4355C15.3231 11.381 16.2196 12.3778 16.7412 13.3281C17.0062 13.811 17.2119 14.3473 17.2363 14.9092C17.2619 15.5003 17.0835 16.0663 16.6729 16.5596C15.9378 17.4422 14.8315 17.8142 13.7129 17.9287C12.5848 18.0442 11.3155 17.9133 10.0781 17.666C9.60455 17.5712 9.29709 17.1104 9.3916 16.6367C9.4863 16.1628 9.94799 15.8555 10.4219 15.9502C11.5712 16.1798 12.6492 16.2782 13.5352 16.1875C14.4307 16.0958 15.0072 15.8248 15.3281 15.4395C15.4569 15.2846 15.4953 15.1458 15.4883 14.9844C15.4799 14.7932 15.4032 14.5273 15.207 14.1699C14.8062 13.4397 14.0669 12.5992 13.166 11.6191C12.2986 10.6755 11.3009 9.622 10.5312 8.55273C9.77045 7.49569 9.125 6.28235 9.125 5Z" fill="black"/>
<path d="M1.125 12C1.125 11.5168 1.51675 11.125 2 11.125C2.48325 11.125 2.875 11.5168 2.875 12C2.875 12.3126 3.15461 12.7985 3.8877 13.375C4.56665 13.9089 5.42469 14.3532 6.06836 14.6143C6.51587 14.7961 6.73138 15.3062 6.5498 15.7539C6.36818 16.2016 5.85791 16.4178 5.41016 16.2363C4.6609 15.9324 3.64889 15.4132 2.80664 14.751C2.01872 14.1314 1.125 13.1873 1.125 12Z" fill="black"/>
<path d="M18.8813 8.88128C19.223 8.53957 19.7779 8.53957 20.1196 8.88128L21.6196 10.3813C21.9613 10.723 21.9613 11.2779 21.6196 11.6196C21.2779 11.9613 20.723 11.9613 20.3813 11.6196L18.8813 10.1196C18.5396 9.77785 18.5396 9.22299 18.8813 8.88128Z" fill="black"/>
</svg>
