<svg width="24" height="24" viewBox="0 0 24 24" fill="none" xmlns="http://www.w3.org/2000/svg">
<path d="M9 5C9.55228 5 10 5.44772 10 6C10 6.51284 9.61396 6.93551 9.11662 6.99327L9 7H3C2.44772 7 2 6.55228 2 6C2 5.48716 2.38604 5.06449 2.88338 5.00673L3 5H9Z" fill="black"/>
<path d="M6.15039 2C6.66323 2 7.0859 2.38604 7.14366 2.88338L7.15039 3V9C7.15039 9.55228 6.70268 10 6.15039 10C5.63755 10 5.21488 9.61396 5.15712 9.11662L5.15039 9V3C5.15039 2.44772 5.59811 2 6.15039 2Z" fill="black"/>
<path d="M5 19V13C5 12.4477 5.44772 12 6 12C6.55228 12 7 12.4477 7 13V19C7 20.1046 7.89543 21 9 21H19C20.1046 21 21 20.1046 21 19V9C21 7.89543 20.1046 7 19 7H13C12.4477 7 12 6.55228 12 6C12 5.44772 12.4477 5 13 5H19C21.2091 5 23 6.79086 23 9V19C23 21.2091 21.2091 23 19 23H9C6.79086 23 5 21.2091 5 19Z" fill="black"/>
<path d="M17.01 10C17.5623 10 18.01 10.4477 18.01 11C18.01 11.5128 17.624 11.9355 17.1266 11.9933L17 12C16.4477 12 16 11.5523 16 11C16 10.4872 16.386 10.0645 16.8834 10.0067L17.01 10Z" fill="black"/>
<path d="M9.30662 13.2797C10.5733 12.0608 12.2485 12.0157 13.5577 13.1563L13.7071 13.2931L18.7071 18.2931C19.0976 18.6836 19.0976 19.3168 18.7071 19.7073C18.3466 20.0678 17.7794 20.0955 17.3871 19.7905L17.2929 19.7073L12.3066 14.7208C11.8017 14.2349 11.3053 14.2025 10.8126 14.6127L10.7071 14.7073L6.70711 18.7073C6.31658 19.0979 5.68342 19.0979 5.29289 18.7073C4.93241 18.3468 4.90468 17.7796 5.2097 17.3873L5.29289 17.2931L9.30662 13.2797Z" fill="black"/>
<path d="M16.3066 15.2797C17.5733 14.0608 19.2485 14.0157 20.5577 15.1563L20.7071 15.2931L22.7071 17.2931C23.0976 17.6836 23.0976 18.3168 22.7071 18.7073C22.3466 19.0678 21.7794 19.0955 21.3871 18.7905L21.2929 18.7073L19.3066 16.7208C18.8017 16.2349 18.3053 16.2025 17.8126 16.6127L17.7071 16.7073L16.7071 17.7073C16.3166 18.0979 15.6834 18.0979 15.2929 17.7073C14.9324 17.3469 14.9047 16.7796 15.2097 16.3873L15.2929 16.2931L16.3066 15.2797Z" fill="black"/>
</svg>
