<svg width="24" height="24" viewBox="0 0 24 24" fill="none" xmlns="http://www.w3.org/2000/svg">
<path fill-rule="evenodd" clip-rule="evenodd" d="M9.60656 10.5527C9.97514 9.81582 11.0271 9.81574 11.3956 10.5527L12.6671 13.0967L15.1651 13.5137C15.9271 13.6408 16.2507 14.5359 15.7882 15.1182L15.7081 15.207L14.0607 16.8535L14.4913 19.8584C14.6002 20.6206 13.8484 21.2 13.1525 20.9375L13.0538 20.8945L10.5011 19.6182L7.94835 20.8945C7.25965 21.2389 6.47202 20.7092 6.50109 19.9658L6.51085 19.8584L6.94054 16.8535L5.29406 15.207C4.74775 14.6607 5.00504 13.7451 5.71984 13.54L5.83702 13.5137L8.3341 13.0967L9.60656 10.5527ZM9.89562 14.4473C9.75257 14.7333 9.48063 14.9337 9.16515 14.9863L8.08214 15.166L8.70812 15.793C8.90274 15.9876 9.00773 16.2526 9.00109 16.5244L8.99132 16.6416L8.75988 18.252L10.0538 17.6055C10.2951 17.4849 10.5736 17.4676 10.8253 17.5537L10.9484 17.6055L12.2413 18.252L12.0109 16.6416C11.9719 16.3691 12.0476 16.0943 12.2159 15.8809L12.2941 15.793L12.9191 15.166L11.837 14.9863C11.561 14.9403 11.3182 14.7814 11.1661 14.5508L11.1066 14.4473L10.5011 13.2363L9.89562 14.4473Z" fill="black"/>
<path d="M18.1163 7.00684C18.5754 7.06016 18.94 7.42471 18.9933 7.88379L19.0001 8C19.0001 8.5127 19.3858 8.93523 19.8829 8.99316L20.0001 9C21.2873 9.00018 21.3314 10.8646 20.1329 10.9932L20.0001 11C19.4873 11 19.0647 11.3865 19.0069 11.8838L19.0001 12C19.0001 13.2874 17.1355 13.3314 17.0069 12.1328L17.0001 12C17.0001 11.4872 16.6137 11.0646 16.1163 11.0068L16.0001 11C14.7129 11 14.6682 9.13579 15.8663 9.00684L16.0001 9C16.5129 8.9999 16.9355 8.61349 16.9933 8.11621L17.0001 8C17.0001 7.4873 17.3858 7.06477 17.8829 7.00684L18.0001 7L18.1163 7.00684Z" fill="black"/>
<path d="M6.11632 4.00684C6.5754 4.06016 6.93995 4.42471 6.99327 4.88379L7.00011 5C7.00011 5.5127 7.38577 5.93523 7.88292 5.99316L8.00011 6C9.28728 6.00018 9.33144 7.86459 8.13292 7.99316L8.00011 8C7.48727 8 7.06471 8.38645 7.00695 8.88379L7.00011 9C7.00011 10.2874 5.13553 10.3314 5.00695 9.13281L5.00011 9C5.00011 8.48716 4.61366 8.0646 4.11632 8.00684L4.00011 8C2.7129 8 2.66816 6.13579 3.86632 6.00684L4.00011 6C4.51286 5.9999 4.93552 5.61349 4.99327 5.11621L5.00011 5C5.00011 4.4873 5.38577 4.06477 5.88292 4.00684L6.00011 4L6.11632 4.00684Z" fill="black"/>
</svg>
