<svg width="24" height="24" viewBox="0 0 24 24" fill="none" xmlns="http://www.w3.org/2000/svg">
<path d="M11.2928 11.2928C11.6533 10.9323 12.2208 10.9048 12.6131 11.2098L12.7069 11.2928L17.7069 16.2928C18.0974 16.6833 18.0974 17.3163 17.7069 17.7069C17.3464 18.0673 16.7788 18.0949 16.3865 17.7899L16.2928 17.7069L11.9998 13.4149L7.70685 17.7069C7.34637 18.0673 6.77883 18.0949 6.38654 17.7899L6.29279 17.7069C5.93231 17.3464 5.90476 16.7788 6.20978 16.3865L6.29279 16.2928L11.2928 11.2928ZM11.2928 5.29279C11.6533 4.93231 12.2208 4.90476 12.6131 5.20978L12.7069 5.29279L17.7069 10.2928C18.0974 10.6833 18.0974 11.3163 17.7069 11.7069C17.3464 12.0673 16.7788 12.0949 16.3865 11.7899L16.2928 11.7069L11.9998 7.41486L7.70685 11.7069C7.34637 12.0673 6.77883 12.0949 6.38654 11.7899L6.29279 11.7069C5.93231 11.3464 5.90476 10.7788 6.20978 10.3865L6.29279 10.2928L11.2928 5.29279Z" fill="black"/>
</svg>
