<svg width="24" height="24" viewBox="0 0 24 24" fill="none" xmlns="http://www.w3.org/2000/svg">
<path d="M17 3C19.2091 3 21 4.79086 21 7V17C21 19.2091 19.2091 21 17 21H7C4.79086 21 3 19.2091 3 17V7C3 4.79086 4.79086 3 7 3H17ZM10.3066 11.7207C9.80169 11.2348 9.30515 11.2021 8.8125 11.6123L8.70703 11.707L5 15.4141V17C5 18.1046 5.89543 19 7 19H17C18.1046 19 19 18.1046 19 17V15.4141L17.3066 13.7207C16.8017 13.2348 16.3052 13.2021 15.8125 13.6123L15.707 13.707L15.4141 14L16.707 15.293C17.0976 15.6835 17.0976 16.3165 16.707 16.707C16.3465 17.0675 15.779 17.0951 15.3867 16.79L15.293 16.707L10.3066 11.7207ZM7 5C5.89543 5 5 5.89543 5 7V12.5859L7.30664 10.2793C8.5733 9.06051 10.2485 9.01568 11.5576 10.1562L11.707 10.293L14 12.5859L14.3066 12.2793C15.5733 11.0605 17.2485 11.0157 18.5576 12.1562L18.707 12.293L19 12.5859V7C19 5.89543 18.1046 5 17 5H7ZM15.0098 7C15.5621 7 16.0098 7.44772 16.0098 8C16.0098 8.51272 15.6241 8.93525 15.127 8.99316L15 9C14.4477 9 14 8.55228 14 8C14 7.48716 14.3865 7.0646 14.8838 7.00684L15.0098 7Z" fill="black"/>
</svg>
