<svg width="24" height="24" viewBox="0 0 24 24" fill="none" xmlns="http://www.w3.org/2000/svg">
<path fill-rule="evenodd" clip-rule="evenodd" d="M11.9676 5.49863L12.0045 5.5321L12.0388 5.50143C13.3236 4.37359 15.0456 3.83623 16.7713 4.06116L17.0178 4.0985C19.2359 4.48155 21.053 6.0738 21.724 8.22234C22.395 10.3709 21.807 12.7143 20.2012 14.2915L20.1535 14.3321L12.7042 21.7106C12.3444 22.0669 11.7817 22.0943 11.3907 21.7928L11.2968 21.7106L3.79247 14.2781L3.62087 14.1037C2.14057 12.5334 1.61333 10.2807 2.25805 8.20722C2.92855 6.05081 4.75305 4.45351 6.97918 4.07402C8.79307 3.7648 10.6232 4.30679 11.9676 5.49863ZM5.20416 12.8616L12.0005 19.5921L18.7968 12.8616L18.8355 12.8261L18.9552 12.7032C19.9074 11.6573 20.2399 10.1793 19.8149 8.81856C19.3676 7.38619 18.1562 6.32469 16.6775 6.06933C15.1988 5.81397 13.7016 6.40771 12.7997 7.60708C12.3983 8.14096 11.5963 8.13873 11.1979 7.60262C10.2998 6.39431 8.79937 5.79258 7.31528 6.04558C5.83119 6.29857 4.61486 7.36344 4.16786 8.80104C3.74321 10.1668 4.08122 11.6491 5.04115 12.6941L5.20416 12.8616Z" fill="black"/>
</svg>
