<svg width="24" height="24" viewBox="0 0 24 24" fill="none" xmlns="http://www.w3.org/2000/svg">
<path fill-rule="evenodd" clip-rule="evenodd" d="M8.49974 13.0008C9.88045 13.0008 10.9997 14.1201 10.9997 15.5008V20.5008C10.9995 21.8813 9.88032 23.0008 8.49974 23.0008H3.49974C2.11924 23.0007 0.999948 21.8813 0.999739 20.5008V15.5008C0.999739 14.1202 2.11911 13.0009 3.49974 13.0008H8.49974ZM2.99974 21.0008H8.99974V15.0008H2.99974V21.0008Z" fill="black"/>
<path fill-rule="evenodd" clip-rule="evenodd" d="M17.9997 13.0008C20.7612 13.0008 22.9997 15.2394 22.9997 18.0008C22.9995 20.7621 20.761 23.0008 17.9997 23.0008C15.2385 23.0007 13 20.762 12.9997 18.0008C12.9997 15.2394 15.2384 13.0009 17.9997 13.0008ZM17.9997 15.0008C16.3429 15.0009 14.9997 16.344 14.9997 18.0008C15 19.6574 16.3431 21.0007 17.9997 21.0008C19.6565 21.0008 20.9995 19.6575 20.9997 18.0008C20.9997 16.344 19.6566 15.0008 17.9997 15.0008Z" fill="black"/>
<path fill-rule="evenodd" clip-rule="evenodd" d="M6.85814 1.27132C7.99292 0.878166 9.26777 1.10974 10.1462 1.93733C10.9857 2.72856 11.2906 3.90531 10.9822 5.00374L10.9724 5.03499L10.9431 5.12581L10.9343 5.15315L10.9255 5.17952L10.9177 5.19417L8.93529 11.074L2.90697 9.49885L2.89818 9.4969L2.88939 9.49397L2.76439 9.45882L2.73607 9.451C1.64372 9.10946 0.822396 8.20774 0.619856 7.06819C0.408144 5.87588 0.916458 4.67818 1.87279 3.94514C2.69917 3.31189 3.77623 3.0903 4.76829 3.35139C5.09851 2.38317 5.87728 1.6113 6.85814 1.27132ZM8.77415 3.39339C8.47352 3.11016 7.99158 2.99491 7.51243 3.16096C7.0312 3.32785 6.69453 3.73123 6.61497 4.17073C6.43483 5.16446 5.35735 5.7433 4.42943 5.3426C4.01855 5.16522 3.4943 5.22207 3.08861 5.53303C2.68507 5.84261 2.51624 6.31085 2.58861 6.71858C2.65598 7.09739 2.92737 7.41266 3.32786 7.53987L3.41282 7.56331L7.63548 8.66682L9.03197 4.53108L9.0388 4.51253L9.04466 4.49495L9.04759 4.48714L9.0554 4.46175C9.16878 4.05684 9.05432 3.65751 8.77415 3.39339Z" fill="black"/>
<path fill-rule="evenodd" clip-rule="evenodd" d="M16.5925 1.56038C17.0191 0.814486 18.0946 0.814533 18.5212 1.56038L22.9665 9.3387C23.3891 10.0792 22.8544 11.0006 22.0017 11.0008H13.112C12.2594 11.0004 11.7254 10.0792 12.1482 9.3387L16.5925 1.56038ZM14.6999 9.07698H20.4138L17.5574 4.07698L14.6999 9.07698Z" fill="black"/>
</svg>
