<svg width="24" height="24" viewBox="0 0 24 24" fill="none" xmlns="http://www.w3.org/2000/svg">
<path d="M6 2C6.51284 2 6.9354 2.38645 6.99316 2.88379L7 3V4.06836L20.0713 5.00293C20.6112 5.04154 21.0152 5.49956 21 6.02734L20.9902 6.1416L19.9902 13.1416C19.9252 13.5963 19.5603 13.9425 19.1133 13.9932L19 14H7V16H17C18.6569 16 20 17.3431 20 19C20 20.6569 18.6569 22 17 22C15.3431 22 14 20.6569 14 19C14 18.649 14.0631 18.3131 14.1738 18H8.82617C8.93694 18.3131 9 18.649 9 19C9 20.6569 7.65685 22 6 22C4.34315 22 3 20.6569 3 19C3 17.6941 3.83532 16.5859 5 16.1738V4H4C3.48716 4 3.0646 3.61355 3.00684 3.11621L3 3C3 2.48716 3.38645 2.0646 3.88379 2.00684L4 2H6ZM6 18C5.44772 18 5 18.4477 5 19C5 19.5523 5.44772 20 6 20C6.55228 20 7 19.5523 7 19C7 18.4477 6.55228 18 6 18ZM17 18C16.4477 18 16 18.4477 16 19C16 19.5523 16.4477 20 17 20C17.5523 20 18 19.5523 18 19C18 18.4477 17.5523 18 17 18ZM7 12H18.1328L18.8584 6.9209L7 6.07324V12Z" fill="black"/>
</svg>
