<svg width="24" height="24" viewBox="0 0 24 24" fill="none" xmlns="http://www.w3.org/2000/svg">
<path d="M20 17C20.5523 17 21 17.4477 21 18C21 18.5128 20.6136 18.9354 20.1162 18.9932L20 19H4C3.44772 19 3 18.5523 3 18C3 17.4872 3.38645 17.0646 3.88379 17.0068L4 17H20ZM20 11C20.5523 11 21 11.4477 21 12C21 12.5128 20.6136 12.9354 20.1162 12.9932L20 13H4C3.44772 13 3 12.5523 3 12C3 11.4872 3.38645 11.0646 3.88379 11.0068L4 11H20ZM20 5C20.5523 5 21 5.44772 21 6C21 6.51284 20.6136 6.9354 20.1162 6.99316L20 7H4C3.44772 7 3 6.55228 3 6C3 5.48716 3.38645 5.0646 3.88379 5.00684L4 5H20Z" fill="black"/>
</svg>
