<svg width="24" height="24" viewBox="0 0 24 24" fill="none" xmlns="http://www.w3.org/2000/svg">
<path d="M6 2C6.51284 2 6.9354 2.38645 6.99316 2.88379L7 3V4.06836L12.0762 4.43164C12.6269 4.47101 13.0421 4.94927 13.0029 5.5C12.9664 6.01143 12.5509 6.40544 12.0508 6.42773L11.9336 6.42676L7 6.07324V12H18.1328L18.1533 11.8604C18.2261 11.3527 18.6684 10.9886 19.1689 11.002L19.2852 11.0117C19.7926 11.0846 20.1559 11.527 20.1426 12.0273L20.1328 12.1436L19.9902 13.1416C19.9251 13.5962 19.5602 13.9425 19.1133 13.9932L19 14H7V16H17C18.6569 16 20 17.3431 20 19C20 20.6569 18.6569 22 17 22C15.3431 22 14 20.6569 14 19C14 18.649 14.0631 18.3131 14.1738 18H8.82617C8.93694 18.3131 9 18.649 9 19C9 20.6569 7.65685 22 6 22C4.34315 22 3 20.6569 3 19C3 17.6941 3.83532 16.5859 5 16.1738V4H4C3.48716 4 3.0646 3.61355 3.00684 3.11621L3 3C3 2.48716 3.38645 2.0646 3.88379 2.00684L4 2H6ZM6 18C5.44772 18 5 18.4477 5 19C5 19.5523 5.44772 20 6 20C6.55228 20 7 19.5523 7 19C7 18.4477 6.55228 18 6 18ZM17 18C16.4477 18 16 18.4477 16 19C16 19.5523 16.4477 20 17 20C17.5523 20 18 19.5523 18 19C18 18.4477 17.5523 18 17 18ZM18 2C18.5128 2 18.9354 2.38645 18.9932 2.88379L19 3V5H21C21.5523 5 22 5.44772 22 6C22 6.51284 21.6135 6.9354 21.1162 6.99316L21 7H19V9C19 9.55228 18.5523 10 18 10C17.4872 10 17.0646 9.61355 17.0068 9.11621L17 9V7H15C14.4477 7 14 6.55228 14 6C14 5.48716 14.3865 5.0646 14.8838 5.00684L15 5H17V3C17 2.44772 17.4477 2 18 2Z" fill="black"/>
</svg>
